<?xml version="1.0" encoding="UTF-8"?>
<svg id="Capa_1" data-name="Capa 1" xmlns="http://www.w3.org/2000/svg" viewBox="0 0 25 25">
  <defs>
    <style>
      .cls-1 {
        fill: none;
      }

      .cls-2 {
        fill: #fff;
      }
    </style>
  </defs>
  <path class="cls-1" d="m15.38.75c-.72,0-1.33,1.07-1.4,2.38h2.81c-.07-1.31-.68-2.38-1.4-2.38Z"/>
  <path class="cls-1" d="m10.8.75c-.72,0-1.33,1.07-1.4,2.38h2.81c-.07-1.31-.68-2.38-1.4-2.38Z"/>
  <path class="cls-1" d="m19.95.75c-.72,0-1.33,1.07-1.4,2.38h2.81c-.07-1.31-.68-2.38-1.4-2.38Z"/>
  <path class="cls-1" d="m24.21,3.63h-5.66c.05.99.41,1.83.89,2.19.12-.16.3-.26.51-.26.37,0,.68.31.68.7s-.3.7-.68.7-.64-.29-.67-.65c-.69-.41-1.18-1.43-1.24-2.68h-4.08c.05.99.41,1.83.89,2.19.12-.16.3-.26.51-.26.37,0,.68.31.68.7s-.3.7-.68.7-.64-.29-.67-.65c-.69-.41-1.18-1.43-1.24-2.68h-4.08c.05.99.41,1.83.89,2.19.12-.16.3-.26.51-.26.37,0,.68.31.68.7s-.3.7-.68.7-.64-.29-.67-.65c-.69-.41-1.18-1.43-1.24-2.68h-2.43c-.24,1.46-1.69,9.62-5.38,13.7h17.56c3.71-3.72,5.28-12.05,5.56-13.7Z"/>
  <path class="cls-1" d="m18.75,21.29H6.5v2.96h17.75V6.64c-.73,4.07-2.35,10.97-5.31,14.56-.05.06-.12.09-.19.09Z"/>
  <path class="cls-1" d="m22.71,11.29c-.9,2.41-2.13,4.85-3.78,6.47-.05.05-.11.07-.17.07H2.73c-.51,1.09-1.08,2.11-1.71,2.96h17.62c1.86-2.32,3.18-6.07,4.08-9.5Z"/>
  <path class="cls-2" d="m24.71,3.28s0-.04-.02-.06c0,0,0,0,0,0,0,0,0,0,0,0,0,0,0,0,0,0-.05-.05-.11-.08-.18-.08h-2.65c-.08-1.63-.88-2.88-1.9-2.88s-1.82,1.25-1.9,2.88h-.77c-.08-1.63-.88-2.88-1.9-2.88s-1.82,1.25-1.9,2.88h-.77c-.08-1.63-.88-2.88-1.9-2.88s-1.83,1.25-1.9,2.88h-2.65c-.06,0-.12.02-.16.06,0,0,0,0,0,0-.01.01-.02.03-.03.05-.02.03-.05.06-.05.09-.01.1-1.51,9.98-5.68,14.06-.07.07-.1.18-.06.27.04.09.13.16.23.16h1.67c-.55,1.16-1.17,2.2-1.87,3.05-.06.07-.07.18-.03.27s.13.14.23.14h5.5v3.21c0,.14.11.25.25.25h18.25c.14,0,.25-.11.25-.25V3.38s-.03-.07-.04-.11Zm-4.75-2.53c.72,0,1.33,1.07,1.4,2.38h-2.81c.07-1.31.68-2.38,1.4-2.38Zm-4.58,0c.72,0,1.33,1.07,1.4,2.38h-2.81c.07-1.31.68-2.38,1.4-2.38Zm-4.58,0c.72,0,1.33,1.07,1.4,2.38h-2.81c.07-1.31.68-2.38,1.4-2.38ZM1.09,17.33C4.77,13.25,6.23,5.1,6.47,3.63h2.43c.06,1.26.55,2.28,1.24,2.68.03.36.31.65.67.65s.68-.31.68-.7-.3-.7-.68-.7c-.21,0-.39.11-.51.26-.48-.36-.84-1.21-.89-2.19h4.08c.06,1.26.55,2.28,1.24,2.68.03.36.31.65.67.65.37,0,.68-.31.68-.7s-.3-.7-.68-.7c-.21,0-.39.1-.51.26-.48-.36-.84-1.21-.89-2.19h4.08c.06,1.26.55,2.28,1.24,2.68.03.36.31.65.67.65.37,0,.68-.31.68-.7s-.3-.7-.68-.7c-.21,0-.39.1-.51.26-.48-.36-.84-1.21-.89-2.19h5.66c-.28,1.65-1.85,9.98-5.56,13.7H1.09Zm-.07,3.46c.64-.85,1.2-1.87,1.71-2.96h16.02c.07,0,.13-.03.17-.07,1.65-1.62,2.88-4.06,3.78-6.47-.89,3.43-2.21,7.18-4.08,9.5H1.01Zm23.24,3.46H6.5v-2.96h12.25c.07,0,.15-.03.19-.09,2.96-3.6,4.57-10.49,5.31-14.56v17.61Z"/>
</svg>