<?xml version="1.0" encoding="utf-8"?>
<!-- Generator: Adobe Illustrator 27.7.0, SVG Export Plug-In . SVG Version: 6.00 Build 0)  -->
<svg version="1.1" id="Слой_1" xmlns="http://www.w3.org/2000/svg" xmlns:xlink="http://www.w3.org/1999/xlink" x="0px" y="0px"
	 viewBox="0 0 128 128" style="enable-background:new 0 0 128 128;" xml:space="preserve">
<style type="text/css">
	.st0{fill:#F9E373;}
	.st1{fill:#FFFFFF;}
	.st2{opacity:0.2;fill:#FFEE3F;enable-background:new    ;}
	.st3{fill:#FEF5BE;}
	.st4{fill:#E94491;}
</style>
<g>
	<g>
		<path class="st0" d="M46.1,14.4L44.7,13c-1.6-1.6-3.8-2.5-6.1-2.5h-26c-4.8,0-8.6,3.9-8.6,8.6v89.7c0,4.8,3.9,8.6,8.6,8.6h102.7
			c4.8,0,8.6-3.9,8.6-8.6V25.5c0-4.8-3.9-8.6-8.6-8.6H52.2C49.9,16.9,47.7,16,46.1,14.4z"/>
	</g>
	<g>
		<path class="st1" d="M115.4,118.7H12.6c-5.4,0-9.9-4.4-9.9-9.9V19.1c0-5.4,4.4-9.9,9.9-9.9h26c2.6,0,5.1,1,7,2.9l1.3,1.3
			c1.4,1.4,3.2,2.2,5.2,2.2h63.2c5.4,0,9.9,4.4,9.9,9.9v83.3C125.2,114.3,120.8,118.7,115.4,118.7z M12.6,11.8
			c-4.1,0-7.4,3.3-7.4,7.4v89.7c0,4.1,3.3,7.4,7.4,7.4h102.7c4.1,0,7.4-3.3,7.4-7.4V25.5c0-4.1-3.3-7.4-7.4-7.4H52.2
			c-2.6,0-5.1-1-7-2.9l-1.3-1.3c-1.4-1.4-3.2-2.2-5.2-2.2L12.6,11.8L12.6,11.8z"/>
	</g>
	<g>
		<path class="st1" d="M22,89.3c-6.2,0-11.3-5-11.3-11.3V36c0-6.2,5-11.3,11.3-11.3h84c6.2,0,11.3,5,11.3,11.3v42.1
			c0,6.2-5,11.3-11.3,11.3L22,89.3L22,89.3z"/>
	</g>
	<path class="st2" d="M22,89.3c-6.2,0-11.3-5-11.3-11.3V36c0-6.2,5-11.3,11.3-11.3h84c6.2,0,11.3,5,11.3,11.3v42.1
		c0,6.2-5,11.3-11.3,11.3L22,89.3L22,89.3z"/>
	<g>
		<path class="st1" d="M106,90.6H22c-6.9,0-12.5-5.6-12.5-12.5V36c0-6.9,5.6-12.5,12.5-12.5h84c6.9,0,12.5,5.6,12.5,12.5v42.1
			C118.5,85,112.9,90.6,106,90.6z M22,26c-5.5,0-10,4.5-10,10v42.1c0,5.5,4.5,10,10,10h84c5.5,0,10-4.5,10-10V36c0-5.5-4.5-10-10-10
			H22z"/>
	</g>
	<g>
		<path class="st3" d="M22,96.1c-6.2,0-11.3-5-11.3-11.3v-42c0-6.2,5-11.3,11.3-11.3h84c6.2,0,11.3,5,11.3,11.3v42.1
			c0,6.2-5,11.3-11.3,11.3L22,96.1L22,96.1z"/>
	</g>
	<g>
		<path class="st1" d="M106,97.3H22c-6.9,0-12.5-5.6-12.5-12.5v-42c0-6.9,5.6-12.5,12.5-12.5h84c6.9,0,12.5,5.6,12.5,12.5v42.1
			C118.5,91.7,112.9,97.3,106,97.3z M22,32.8c-5.5,0-10,4.5-10,10v42.1c0,5.5,4.5,10,10,10h84c5.5,0,10-4.5,10-10V42.8
			c0-5.5-4.5-10-10-10H22z"/>
	</g>
	<g>
		<path class="st0" d="M4,50.7v58.2c0,4.8,3.9,8.6,8.6,8.6h102.7c4.8,0,8.6-3.9,8.6-8.6V48c0-4.8-3.9-8.6-8.6-8.6h-100
			C9,39.4,4,44.4,4,50.7z"/>
	</g>
	<g>
		<circle class="st1" cx="64" cy="78.5" r="27.5"/>
	</g>
	<g>
		<path class="st1" d="M64,107.2c-15.9,0-28.8-12.9-28.8-28.8S48.1,49.8,64,49.8s28.8,12.9,28.8,28.8S79.9,107.2,64,107.2z M64,52.2
			c-14.5,0-26.2,11.8-26.2,26.2s11.8,26.2,26.2,26.2S90.2,93,90.2,78.5S78.5,52.2,64,52.2z"/>
	</g>
	<g>
		<path class="st4" d="M83.2,72.1H71.5c-0.4,0-0.8-0.4-0.8-0.8V59.6c0-0.4-0.4-0.8-0.8-0.8H58.1c-0.4,0-0.8,0.4-0.8,0.8v11.7
			c0,0.4-0.4,0.8-0.8,0.8H44.8c-0.4,0-0.8,0.4-0.8,0.8v11.7c0,0.4,0.4,0.8,0.8,0.8h11.7c0.4,0,0.8,0.4,0.8,0.8V98
			c0,0.4,0.4,0.8,0.8,0.8h11.7c0.4,0,0.8-0.4,0.8-0.8V86.3c0-0.4,0.4-0.8,0.8-0.8h11.7c0.4,0,0.8-0.4,0.8-0.8V72.9
			C84,72.5,83.6,72.1,83.2,72.1z"/>
	</g>
	<g>
		<path class="st1" d="M115.4,118.7H12.6c-5.4,0-9.9-4.4-9.9-9.9V50.7c0-6.9,5.6-12.5,12.5-12.5h100.1c5.4,0,9.9,4.4,9.9,9.9v60.8
			C125.2,114.3,120.8,118.7,115.4,118.7z M15.3,40.7c-5.5,0-10,4.5-10,10v58.2c0,4.1,3.3,7.4,7.4,7.4h102.7c4.1,0,7.4-3.3,7.4-7.4
			V48c0-4.1-3.3-7.4-7.4-7.4H15.3V40.7z"/>
	</g>
</g>
</svg>
