<?xml version="1.0" encoding="UTF-8"?>
<svg id="Capa_1" data-name="Capa 1" xmlns="http://www.w3.org/2000/svg" viewBox="0 0 25 25">
  <defs>
    <style>
      .cls-1 {
        fill: none;
      }

      .cls-2 {
        fill: #fff;
      }
    </style>
  </defs>
  <path class="cls-1" d="m17.58,18.7l-1.12,1.15c-.05.05-.11.08-.18.08-.06,0-.12-.02-.17-.06l-1.71-1.55v5.93c3.71-.1,4.75-2.31,4.88-2.64v-1.33c0-.29-.14-.55-.38-.71l-1.32-.86Zm.22,2.77h-1.78c-.14,0-.25-.11-.25-.25s.11-.25.25-.25h1.78c.14,0,.25.11.25.25s-.11.25-.25.25Z"/>
  <path class="cls-1" d="m14.01,6.27h-.41c-2.2,0-3.99,1.79-3.99,3.99v.16c3.5-1.45,4.27-3.67,4.4-4.15Z"/>
  <path class="cls-1" d="m13.75,17.79h-.15c-.41,0-.8-.07-1.18-.18l-1.25.82.88.91,1.71-1.55Z"/>
  <path class="cls-1" d="m13.59,5.77h1.37c1.08,0,2.06.4,2.84,1.04l1.11-3.94c-.42-.36-2.05-1.6-4.64-2.12-2.59.52-4.21,1.77-4.64,2.12l1.11,3.94c.78-.64,1.76-1.04,2.84-1.04Zm-.37-2.64h.8v-.8c0-.14.11-.25.25-.25s.25.11.25.25v.8h.8c.14,0,.25.11.25.25s-.11.25-.25.25h-.8v.8c0,.14-.11.25-.25.25s-.25-.11-.25-.25v-.8h-.8c-.14,0-.25-.11-.25-.25s.11-.25.25-.25Z"/>
  <path class="cls-1" d="m18.95,13.3v-2.34c-3.06-1.21-4.24-2.97-4.67-3.96-.44.99-1.61,2.75-4.67,3.96v2.34c0,2.2,1.79,3.99,3.99,3.99h1.37c2.2,0,3.99-1.79,3.99-3.99Zm-7.36.45c-.05-.13.01-.27.14-.32.13-.05.27.01.32.14.02.06.61,1.46,2.23,1.46s2.22-1.45,2.23-1.46c.05-.13.19-.19.32-.14.13.05.19.2.14.32-.03.07-.73,1.78-2.69,1.78s-2.66-1.71-2.69-1.78Z"/>
  <path class="cls-1" d="m14.96,6.27h-.41c.13.48.9,2.69,4.4,4.15v-.16c0-2.2-1.79-3.99-3.99-3.99Z"/>
  <path class="cls-1" d="m12.03,19.93c-.07,0-.13-.03-.18-.08l-1.12-1.15-1.32.86c-.24.16-.38.42-.38.71v1.33c.13.33,1.17,2.54,4.88,2.64v-5.93l-1.71,1.55s-.11.06-.17.06Z"/>
  <path class="cls-1" d="m14.96,17.79h-.4l1.71,1.55.88-.91-1.18-.77c-.33.08-.66.13-1.01.13Z"/>
  <path class="cls-2" d="m17.8,20.97h-1.78c-.14,0-.25.11-.25.25s.11.25.25.25h1.78c.14,0,.25-.11.25-.25s-.11-.25-.25-.25Z"/>
  <path class="cls-2" d="m13.22,3.63h.8v.8c0,.14.11.25.25.25s.25-.11.25-.25v-.8h.8c.14,0,.25-.11.25-.25s-.11-.25-.25-.25h-.8v-.8c0-.14-.11-.25-.25-.25s-.25.11-.25.25v.8h-.8c-.14,0-.25.11-.25.25s.11.25.25.25Z"/>
  <path class="cls-2" d="m16.97,13.75c.05-.13-.01-.27-.14-.32-.13-.05-.27.01-.32.14,0,.01-.6,1.46-2.23,1.46s-2.2-1.4-2.23-1.46c-.05-.13-.2-.19-.32-.14-.13.05-.19.2-.14.32.03.07.73,1.78,2.69,1.78s2.66-1.71,2.69-1.78Z"/>
  <path class="cls-2" d="m6.96,2.07c-.14,0-.25.11-.25.25v1.72c0,.14.11.25.25.25s.25-.11.25-.25v-1.72c0-.14-.11-.25-.25-.25Z"/>
  <path class="cls-2" d="m6.96,6.09c-.14,0-.25.11-.25.25v1.72c0,.14.11.25.25.25s.25-.11.25-.25v-1.72c0-.14-.11-.25-.25-.25Z"/>
  <path class="cls-2" d="m5.82,4.94h-1.72c-.14,0-.25.11-.25.25s.11.25.25.25h1.72c.14,0,.25-.11.25-.25s-.11-.25-.25-.25Z"/>
  <path class="cls-2" d="m19.17,19.15l-2.58-1.68c1.67-.66,2.85-2.27,2.85-4.17v-3.04c0-1.19-.47-2.27-1.23-3.07l1.22-4.33c.02-.09,0-.19-.07-.25-.07-.07-1.84-1.73-5.04-2.36-.03,0-.06,0-.1,0-3.2.63-4.97,2.29-5.04,2.36-.07.06-.09.16-.07.25l.59,2.08h-1.6c-.14,0-.25.11-.25.25s.11.25.25.25h1.72s0,0,.02,0l.5,1.75c-.76.8-1.23,1.88-1.23,3.07v3.04c0,1.84,1.11,3.42,2.7,4.11l-2.67,1.74c-.38.25-.61.67-.61,1.13v1.37s0,.06.01.08c.04.12,1.1,3.02,5.61,3.02s5.57-2.9,5.61-3.02c0-.03.01-.05.01-.08v-1.37c0-.46-.23-.88-.61-1.13Zm-2.02-.72l-.88.91-1.71-1.55h.4c.35,0,.69-.05,1.01-.13l1.18.77Zm1.79-8.17v.16c-3.5-1.45-4.27-3.67-4.4-4.15h.41c2.2,0,3.99,1.79,3.99,3.99ZM9.64,2.88c.42-.36,2.04-1.6,4.64-2.12,2.59.52,4.21,1.77,4.64,2.12l-1.11,3.94c-.78-.64-1.76-1.04-2.84-1.04h-1.37c-1.08,0-2.06.4-2.84,1.04l-1.11-3.94Zm-.03,7.38c0-2.2,1.79-3.99,3.99-3.99h.41c-.13.48-.9,2.69-4.4,4.15v-.16Zm2.81,7.35c.38.1.77.18,1.18.18h.15l-1.71,1.55-.88-.91,1.25-.82Zm1.49,6.63c-3.71-.1-4.75-2.31-4.88-2.64v-1.33c0-.29.14-.55.38-.71l1.32-.86,1.12,1.15c.05.05.11.08.18.08.06,0,.12-.02.17-.06l1.71-1.55v5.93Zm-.31-6.96c-2.2,0-3.99-1.79-3.99-3.99v-2.34c3.06-1.21,4.24-2.97,4.67-3.96.44.99,1.61,2.75,4.67,3.96v2.34c0,2.2-1.79,3.99-3.99,3.99h-1.37Zm5.69,4.31c-.13.33-1.17,2.54-4.88,2.64v-5.93l1.71,1.55s.11.06.17.06c.07,0,.13-.03.18-.08l1.12-1.15,1.32.86c.24.16.38.42.38.71v1.33Z"/>
  <path class="cls-2" d="m3.43,10.55c-.14,0-.25.11-.25.25v1.19c0,.14.11.25.25.25s.25-.11.25-.25v-1.19c0-.14-.11-.25-.25-.25Z"/>
  <path class="cls-2" d="m3.43,14.11c-.14,0-.25.11-.25.25v1.19c0,.14.11.25.25.25s.25-.11.25-.25v-1.19c0-.14-.11-.25-.25-.25Z"/>
  <path class="cls-2" d="m2.25,12.93h-1.19c-.14,0-.25.11-.25.25s.11.25.25.25h1.19c.14,0,.25-.11.25-.25s-.11-.25-.25-.25Z"/>
  <path class="cls-2" d="m5.81,12.93h-1.19c-.14,0-.25.11-.25.25s.11.25.25.25h1.19c.14,0,.25-.11.25-.25s-.11-.25-.25-.25Z"/>
  <path class="cls-2" d="m21.57,14.66c-.14,0-.25.11-.25.25v1.19c0,.14.11.25.25.25s.25-.11.25-.25v-1.19c0-.14-.11-.25-.25-.25Z"/>
  <path class="cls-2" d="m21.57,18.22c-.14,0-.25.11-.25.25v1.19c0,.14.11.25.25.25s.25-.11.25-.25v-1.19c0-.14-.11-.25-.25-.25Z"/>
  <path class="cls-2" d="m20.38,17.04h-1.19c-.14,0-.25.11-.25.25s.11.25.25.25h1.19c.14,0,.25-.11.25-.25s-.11-.25-.25-.25Z"/>
  <path class="cls-2" d="m23.95,17.04h-1.19c-.14,0-.25.11-.25.25s.11.25.25.25h1.19c.14,0,.25-.11.25-.25s-.11-.25-.25-.25Z"/>
</svg>