<?xml version="1.0" encoding="UTF-8"?>
<svg id="Capa_1" data-name="Capa 1" xmlns="http://www.w3.org/2000/svg" viewBox="0 0 24.49 21.54">
  <defs>
    <style>
      .cls-1 {
        fill: none;
      }

      .cls-1, .cls-2, .cls-3 {
        stroke: #000;
        stroke-miterlimit: 10;
      }

      .cls-2 {
        fill: #ff2970;
      }

      .cls-3 {
        fill: #fff;
      }
    </style>
  </defs>
  <path class="cls-2" d="m17.51.5c-1.92-.07-3.87.81-5.06,2.27-.09.12-.29.12-.39,0-1.15-1.41-3.01-2.27-4.88-2.27h-.18c-1.99.06-3.99,1.17-5.22,2.9C.52,5.17.17,7.56.83,9.77c.7,2.35,2.54,4.19,4.37,5.88,2.16,1.99,4.59,3.71,6.95,5.36.04.03.07.03.08.03.06,0,.08,0,.12-.03,2.35-1.66,4.78-3.37,6.95-5.36,1.83-1.69,3.67-3.53,4.37-5.88.66-2.22.31-4.6-.95-6.37-1.23-1.73-3.23-2.84-5.22-2.9h.01Zm.08,11.56c0,.14-.11.25-.25.25h-3.54v3.54c0,.14-.11.25-.25.25h-2.58c-.14,0-.25-.11-.25-.25v-3.54h-3.54c-.14,0-.25-.11-.25-.25v-2.58c0-.14.11-.25.25-.25h3.54v-3.54c0-.14.11-.25.25-.25h2.58c.14,0,.25.11.25.25v3.54h3.54c.14,0,.25.11.25.25,0,0,0,2.58,0,2.58Z"/>
  <path class="cls-1" d="m13.3,9.48v-3.54h-2.08v3.54c0,.14-.11.25-.25.25h-3.54v2.08h3.54c.14,0,.25.11.25.25v3.54h2.08v-3.54c0-.14.11-.25.25-.25h3.54v-2.08h-3.54c-.14,0-.25-.11-.25-.25Z"/>
  <path class="cls-3" d="m17.34,9.23h-3.54v-3.54c0-.14-.11-.25-.25-.25h-2.58c-.14,0-.25.11-.25.25v3.54h-3.54c-.14,0-.25.11-.25.25v2.58c0,.14.11.25.25.25h3.54v3.54c0,.14.11.25.25.25h2.58c.14,0,.25-.11.25-.25v-3.54h3.54c.14,0,.25-.11.25-.25v-2.58c0-.14-.11-.25-.25-.25Z"/>
</svg>