<?xml version="1.0" encoding="UTF-8"?>
<svg id="Capa_1" data-name="Capa 1" xmlns="http://www.w3.org/2000/svg" viewBox="0 0 25 25">
  <defs>
    <style>
      .cls-1 {
        fill: none;
      }

      .cls-2 {
        fill: #fff;
      }
    </style>
  </defs>
  <path class="cls-1" d="m3.95,14.45c.14-.03.27.05.3.18.96,3.68,4.3,6.25,8.11,6.25,4.62,0,8.38-3.76,8.38-8.38s-3.76-8.38-8.38-8.38c-2.15,0-4.18.81-5.74,2.28l1.17,1.14c.07.07.1.18.06.27-.04.09-.13.16-.23.16H3.29c-.73,1.44-1.12,3.07-1.08,4.79.02.71.11,1.4.27,2.07l1.47-.38Zm8.3-7.65c0-.14.11-.25.25-.25s.25.11.25.25v5.58l2.19,1.87.31.27c.1.09.12.25.03.35-.05.06-.12.09-.19.09-.06,0-.12-.02-.16-.06l-2.59-2.21c-.06-.05-.09-.12-.09-.19v-5.7Z"/>
  <path class="cls-1" d="m12.31.75c-3.14,0-6.09,1.22-8.31,3.44-.1.1-.25.1-.35,0l-.93-.91v4.18h4.28l-.91-.89s-.07-.11-.08-.18.03-.13.07-.18c1.68-1.68,3.91-2.6,6.28-2.6,4.9,0,8.88,3.98,8.88,8.88s-3.98,8.88-8.88,8.88c-3.96,0-7.42-2.61-8.52-6.39l-2.83.73c1.43,5.03,6.04,8.53,11.3,8.53,6.48,0,11.75-5.27,11.75-11.75S18.78.75,12.31.75Z"/>
  <path class="cls-2" d="m12.31.25C9.12.25,6.11,1.46,3.82,3.67l-1.18-1.15c-.07-.07-.18-.09-.27-.05-.09.04-.15.13-.15.23v5.03c0,.14.11.25.25.25h.27c-.69,1.45-1.07,3.08-1.03,4.8.02.75.12,1.48.29,2.18l-1.36.35c-.06.02-.12.06-.15.12-.03.06-.04.13-.03.19,1.41,5.38,6.28,9.14,11.85,9.14,6.75,0,12.25-5.5,12.25-12.25S19.06.25,12.31.25ZM3.29,7.97h4.32c.1,0,.19-.06.23-.16.04-.09.02-.2-.06-.27l-1.17-1.14c1.56-1.47,3.59-2.28,5.74-2.28,4.62,0,8.38,3.76,8.38,8.38s-3.76,8.38-8.38,8.38c-3.81,0-7.14-2.57-8.11-6.25-.04-.13-.17-.21-.3-.18l-1.47.38c-.16-.67-.25-1.36-.27-2.07-.04-1.72.35-3.35,1.08-4.79Zm9.02,16.28c-5.26,0-9.87-3.49-11.3-8.53l2.83-.73c1.1,3.77,4.57,6.39,8.52,6.39,4.9,0,8.88-3.98,8.88-8.88S17.26,3.62,12.36,3.62c-2.37,0-4.6.92-6.28,2.6-.05.05-.07.11-.07.18s.03.13.08.18l.91.89H2.72V3.29l.93.91c.1.1.25.09.35,0C6.22,1.97,9.17.75,12.31.75c6.48,0,11.75,5.27,11.75,11.75s-5.27,11.75-11.75,11.75Z"/>
  <path class="cls-2" d="m14.93,14.9s.1.06.16.06c.07,0,.14-.03.19-.09.09-.1.08-.26-.03-.35l-.31-.27-2.19-1.87v-5.58c0-.14-.11-.25-.25-.25s-.25.11-.25.25v5.7c0,.07.03.14.09.19l2.59,2.21Z"/>
</svg>