<?xml version="1.0" encoding="UTF-8"?>
<svg id="Layer_1" data-name="Layer 1" xmlns="http://www.w3.org/2000/svg" viewBox="0 0 72.66 72.67">
  <defs>
    <style>
      .cls-1, .cls-2, .cls-3 {
        fill: none;
        stroke: #fff;
        stroke-width: 2px;
      }

      .cls-1, .cls-3 {
        stroke-miterlimit: 10;
      }

      .cls-2 {
        stroke-linejoin: round;
      }

      .cls-2, .cls-3 {
        stroke-linecap: round;
      }
    </style>
  </defs>
  <path class="cls-1" d="m68.74,42.13c3.88,3.9,3.88,10.21,0,14.11-2.34,2.35-6.2,3.27-9.75,2.77.5,3.55-.42,7.41-2.77,9.75-3.9,3.88-10.21,3.88-14.11,0-3.75-3.75-3.93-11.37-.45-15.4l-7.92-7.92-1.85-7.92,9.66,2.26,2.49.59-.58-2.5-1.85-7.92,11.7,11.73c4.06-3.48,11.68-3.3,15.43.45Z"/>
  <path class="cls-2" d="m30.51,3.9c3.75,3.75,3.93,11.37.45,15.4l6.35,6.38.17.76,2.27,9.66-9.66-2.26-2.5-.59.58,2.5,1.28,5.42-10.14-10.19c-4,3.48-11.65,3.3-15.4-.45C.03,26.63.03,20.32,3.91,16.42c2.34-2.35,6.2-3.27,9.75-2.77-.5-3.55.42-7.41,2.77-9.75C20.33.03,26.61.03,30.51,3.9Z"/>
  <line class="cls-3" x1="41.22" y1="24.89" x2="42.96" y2="19.61"/>
  <line class="cls-3" x1="43.3" y1="26.26" x2="46.54" y2="23.29"/>
  <line class="cls-3" x1="44.92" y1="28.08" x2="49.16" y2="26.83"/>
  <line class="cls-3" x1="27.93" y1="43.19" x2="22.65" y2="44.94"/>
  <line class="cls-3" x1="29.3" y1="45.28" x2="26.33" y2="48.52"/>
  <line class="cls-3" x1="31.12" y1="46.9" x2="29.87" y2="51.13"/>
</svg>