<?xml version="1.0" encoding="UTF-8"?>
<svg id="Capa_1" data-name="Capa 1" xmlns="http://www.w3.org/2000/svg" viewBox="0 0 25 25">
  <defs>
    <style>
      .cls-1 {
        fill: #fff;
      }
    </style>
  </defs>
  <path class="cls-1" d="m23.44,16.35l-3.85-3.85,3.85-3.85c1.36-1.36,1.36-3.57,0-4.93l-2.16-2.16c-1.36-1.36-3.57-1.36-4.93,0l-3.85,3.85-3.85-3.85C7.29.2,5.07.2,3.71,1.55L1.56,3.71C.2,5.07.2,7.28,1.56,8.64l3.85,3.85-3.85,3.85c-1.36,1.36-1.36,3.57,0,4.93l2.16,2.16c.68.68,1.57,1.02,2.47,1.02s1.79-.34,2.47-1.02l3.85-3.85,3.85,3.85c.66.66,1.53,1.02,2.47,1.02s1.81-.36,2.47-1.02l2.16-2.16c1.36-1.36,1.36-3.57,0-4.93Zm-4.62,7.61c-.8,0-1.55-.31-2.11-.88L1.91,8.29c-1.16-1.16-1.16-3.06,0-4.23l2.16-2.16c.58-.58,1.35-.87,2.11-.87s1.53.29,2.11.87l14.8,14.8c1.17,1.17,1.17,3.06,0,4.23l-2.16,2.16c-.56.56-1.31.88-2.11.88Zm-14.75-.88l-2.16-2.16c-1.17-1.17-1.17-3.06,0-4.23l3.85-3.85,6.38,6.38-3.85,3.85c-1.17,1.17-3.06,1.17-4.23,0ZM20.93,1.91l2.16,2.16c1.16,1.17,1.16,3.06,0,4.23l-3.85,3.85-6.38-6.38,3.85-3.85c.58-.58,1.35-.87,2.11-.87s1.53.29,2.11.87Z"/>
  <path class="cls-1" d="m8.3,9.24c-.49-.49-1.29-.49-1.78,0s-.49,1.29,0,1.78c.25.25.57.37.89.37s.65-.12.89-.37c.49-.49.49-1.29,0-1.78Zm-1.43,1.43c-.3-.3-.3-.78,0-1.07.15-.15.34-.22.54-.22s.39.07.54.22c.3.3.3.78,0,1.07-.3.3-.78.3-1.07,0Z"/>
  <path class="cls-1" d="m10.13,8.67c.34,0,.65-.13.89-.37.24-.24.37-.55.37-.89s-.13-.65-.37-.89c-.48-.48-1.3-.48-1.78,0-.24.24-.37.55-.37.89s.13.65.37.89c.24.24.55.37.89.37Zm.54-1.79c.14.14.22.33.22.54s-.08.39-.22.54c-.29.29-.79.29-1.07,0-.14-.14-.22-.33-.22-.54s.08-.39.22-.54.33-.22.54-.22.39.08.54.22Z"/>
  <path class="cls-1" d="m10.79,11.73c-.49-.49-1.29-.49-1.78,0-.49.49-.49,1.29,0,1.78.25.25.57.37.89.37s.64-.12.89-.37c.49-.49.49-1.29,0-1.78Zm-1.43,1.43c-.3-.3-.3-.78,0-1.07.15-.15.34-.22.54-.22s.39.07.54.22c.3.3.3.78,0,1.07s-.78.3-1.07,0Z"/>
  <path class="cls-1" d="m11.73,10.79c.24.24.55.37.89.37s.65-.13.89-.37c.49-.49.49-1.29,0-1.78s-1.31-.48-1.78,0c-.49.49-.49,1.29,0,1.78Zm.89-1.65c.2,0,.39.08.54.22.3.3.3.78,0,1.07s-.79.29-1.07,0c-.3-.3-.3-.78,0-1.07.14-.14.33-.22.54-.22Z"/>
  <path class="cls-1" d="m13.27,14.21c-.48-.48-1.31-.48-1.78,0-.49.49-.49,1.29,0,1.78.25.25.57.37.89.37s.64-.12.89-.37c.49-.49.49-1.29,0-1.78Zm-1.43,1.43c-.3-.3-.3-.78,0-1.07.14-.14.33-.22.54-.22s.39.08.54.22c.3.3.3.78,0,1.07s-.78.3-1.07,0Z"/>
  <path class="cls-1" d="m14.21,13.27c.25.25.57.37.89.37s.65-.12.89-.37c.49-.49.49-1.29,0-1.78s-1.29-.49-1.78,0-.49,1.29,0,1.78Zm.89-1.65c.19,0,.39.07.54.22.3.3.3.78,0,1.07-.3.3-.78.3-1.07,0-.3-.3-.3-.78,0-1.07.15-.15.34-.22.54-.22Z"/>
  <path class="cls-1" d="m13.98,16.7c-.24.24-.37.55-.37.89s.13.65.37.89c.24.24.55.37.89.37s.65-.13.89-.37c.24-.24.37-.55.37-.89s-.13-.65-.37-.89c-.48-.48-1.31-.48-1.78,0Zm.35,1.43c-.14-.14-.22-.33-.22-.54s.08-.39.22-.54c.14-.14.33-.22.54-.22s.39.08.54.22.22.33.22.54-.08.39-.22.54c-.29.29-.79.29-1.07,0Z"/>
  <path class="cls-1" d="m16.7,13.98c-.49.49-.49,1.29,0,1.78.25.25.57.37.89.37s.64-.12.89-.37c.49-.49.49-1.29,0-1.78s-1.29-.49-1.78,0Zm.35,1.43c-.3-.3-.3-.78,0-1.07.15-.15.34-.22.54-.22s.39.07.54.22c.3.3.3.78,0,1.07s-.78.3-1.07,0Z"/>
</svg>