<?xml version="1.0" encoding="UTF-8"?>
<svg id="Capa_1" data-name="Capa 1" xmlns="http://www.w3.org/2000/svg" viewBox="0 0 25 25">
  <defs>
    <style>
      .cls-1 {
        fill: none;
      }

      .cls-2 {
        fill: #fff;
      }
    </style>
  </defs>
  <path class="cls-1" d="m17.75,2.23c-1.92-.07-3.87.81-5.06,2.27-.09.12-.29.12-.39,0-1.15-1.41-3.01-2.27-4.88-2.27-.06,0-.12,0-.18,0-1.99.06-3.99,1.17-5.22,2.9-1.26,1.77-1.61,4.16-.95,6.37.7,2.35,2.54,4.19,4.37,5.88,2.16,1.99,4.59,3.71,6.95,5.36.04.03.07.03.08.03.06,0,.08,0,.12-.03,2.35-1.66,4.78-3.37,6.95-5.36,1.83-1.69,3.67-3.53,4.37-5.88.66-2.22.31-4.6-.95-6.37-1.23-1.73-3.23-2.84-5.22-2.9Zm.08,11.56c0,.14-.11.25-.25.25h-3.54v3.54c0,.14-.11.25-.25.25h-2.58c-.14,0-.25-.11-.25-.25v-3.54h-3.54c-.14,0-.25-.11-.25-.25v-2.58c0-.14.11-.25.25-.25h3.54v-3.54c0-.14.11-.25.25-.25h2.58c.14,0,.25.11.25.25v3.54h3.54c.14,0,.25.11.25.25v2.58Z"/>
  <path class="cls-1" d="m13.54,11.21v-3.54h-2.08v3.54c0,.14-.11.25-.25.25h-3.54v2.08h3.54c.14,0,.25.11.25.25v3.54h2.08v-3.54c0-.14.11-.25.25-.25h3.54v-2.08h-3.54c-.14,0-.25-.11-.25-.25Z"/>
  <path class="cls-2" d="m23.38,4.84c-1.32-1.86-3.47-3.05-5.61-3.11-2.01-.05-3.96.77-5.27,2.22-1.31-1.45-3.26-2.28-5.27-2.22-2.15.06-4.3,1.25-5.61,3.11C.27,6.74-.11,9.28.6,11.65c.74,2.47,2.72,4.44,4.51,6.1,2.18,2.02,4.63,3.74,7,5.41.11.08.24.12.34.12.01,0,.02,0,.03,0,.15.01.29-.03.41-.12,2.37-1.66,4.81-3.39,7-5.41,1.8-1.66,3.78-3.63,4.51-6.1.71-2.37.32-4.91-1.02-6.81Zm.54,6.66c-.7,2.35-2.54,4.19-4.37,5.88-2.16,2-4.6,3.71-6.95,5.36-.04.03-.06.03-.12.03-.02,0-.05,0-.08-.03-2.35-1.66-4.79-3.37-6.95-5.36-1.83-1.69-3.67-3.53-4.37-5.88-.66-2.22-.31-4.6.95-6.37,1.23-1.73,3.23-2.84,5.22-2.9.06,0,.12,0,.18,0,1.87,0,3.73.86,4.88,2.27.09.12.29.12.39,0,1.19-1.45,3.14-2.33,5.06-2.27,1.99.06,3.99,1.17,5.22,2.9,1.26,1.77,1.61,4.16.95,6.37Z"/>
  <path class="cls-2" d="m17.58,10.96h-3.54v-3.54c0-.14-.11-.25-.25-.25h-2.58c-.14,0-.25.11-.25.25v3.54h-3.54c-.14,0-.25.11-.25.25v2.58c0,.14.11.25.25.25h3.54v3.54c0,.14.11.25.25.25h2.58c.14,0,.25-.11.25-.25v-3.54h3.54c.14,0,.25-.11.25-.25v-2.58c0-.14-.11-.25-.25-.25Zm-.25,2.58h-3.54c-.14,0-.25.11-.25.25v3.54h-2.08v-3.54c0-.14-.11-.25-.25-.25h-3.54v-2.08h3.54c.14,0,.25-.11.25-.25v-3.54h2.08v3.54c0,.14.11.25.25.25h3.54v2.08Z"/>
</svg>