<?xml version="1.0" encoding="UTF-8"?>
<svg id="Capa_1" data-name="Capa 1" xmlns="http://www.w3.org/2000/svg" viewBox="0 0 25 25">
  <defs>
    <style>
      .cls-1 {
        fill: none;
      }

      .cls-2 {
        fill: #fff;
      }
    </style>
  </defs>
  <path class="cls-1" d="m6.83,16.51c0-1.22.39-2.35,1.05-3.27h-3.46v6.55h3.46c-.66-.93-1.05-2.05-1.05-3.27Z"/>
  <path class="cls-1" d="m6.86.75h11.28c.59,0,1.06.48,1.06,1.06v3.07c0,.59-.48,1.06-1.06,1.06H6.86c-.59,0-1.06-.48-1.06-1.06V1.81c0-.59.48-1.06,1.06-1.06Z"/>
  <path class="cls-1" d="m12.5,21.68c2.85,0,5.17-2.32,5.17-5.17s-2.32-5.17-5.17-5.17-5.17,2.32-5.17,5.17,2.32,5.17,5.17,5.17Zm-3.42-5.42h3.17v-3.17c0-.14.11-.25.25-.25s.25.11.25.25v3.17h3.17c.14,0,.25.11.25.25s-.11.25-.25.25h-3.17v3.17c0,.14-.11.25-.25.25s-.25-.11-.25-.25v-3.17h-3.17c-.14,0-.25-.11-.25-.25s.11-.25.25-.25Z"/>
  <path class="cls-1" d="m18.13,8.1c-.21-.21-.32-.49-.32-.78v-.88H7.19v.88c0,.29-.11.57-.32.78l-2.14,2.18c-.21.21-.32.49-.32.78v1.67h3.87c1.04-1.16,2.55-1.9,4.22-1.9s3.18.74,4.22,1.9h3.87v-1.67c0-.29-.11-.57-.32-.78l-2.14-2.18Z"/>
  <path class="cls-1" d="m18.17,16.51c0,1.22-.39,2.35-1.05,3.27h3.46v-6.55h-3.46c.66.93,1.05,2.05,1.05,3.27Z"/>
  <path class="cls-1" d="m12.5,22.18c-1.68,0-3.18-.74-4.22-1.9h-3.87v2.24c0,.95.77,1.73,1.73,1.73h12.72c.95,0,1.73-.77,1.73-1.73v-2.24h-3.87c-1.04,1.16-2.55,1.9-4.22,1.9Z"/>
  <path class="cls-2" d="m20.63,9.94l-2.14-2.18c-.11-.12-.17-.27-.17-.43v-.9c.78-.09,1.39-.74,1.39-1.54V1.81c0-.86-.7-1.56-1.56-1.56H6.86c-.86,0-1.56.7-1.56,1.56v3.07c0,.8.61,1.46,1.39,1.54v.9c0,.16-.06.31-.18.43l-2.14,2.18c-.3.3-.46.71-.46,1.13v11.46c0,1.23,1,2.23,2.23,2.23h12.72c1.23,0,2.23-1,2.23-2.23v-11.46c0-.43-.16-.83-.46-1.13ZM5.8,4.88V1.81c0-.58.48-1.06,1.06-1.06h11.28c.58,0,1.06.48,1.06,1.06v3.07c0,.58-.48,1.06-1.06,1.06H6.86c-.58,0-1.06-.48-1.06-1.06Zm-1.39,8.35h3.46c-.66.93-1.05,2.05-1.05,3.27s.39,2.35,1.05,3.27h-3.46v-6.55Zm8.09-1.9c2.85,0,5.17,2.32,5.17,5.17s-2.32,5.17-5.17,5.17-5.17-2.32-5.17-5.17,2.32-5.17,5.17-5.17Zm8.09,11.19c0,.95-.77,1.73-1.73,1.73H6.14c-.95,0-1.73-.77-1.73-1.73v-2.24h3.87c1.04,1.16,2.55,1.9,4.22,1.9s3.18-.74,4.22-1.9h3.87v2.24Zm0-2.74h-3.46c.66-.93,1.05-2.05,1.05-3.27s-.39-2.35-1.05-3.27h3.46v6.55Zm0-7.05h-3.87c-1.04-1.16-2.55-1.9-4.22-1.9s-3.18.74-4.22,1.9h-3.87v-1.67c0-.29.11-.57.32-.78l2.14-2.18c.21-.21.32-.49.32-.78v-.88h10.63v.88c0,.29.11.57.32.78l2.14,2.18c.21.21.32.49.32.78v1.67Z"/>
  <path class="cls-2" d="m9.08,16.76h3.17v3.17c0,.14.11.25.25.25s.25-.11.25-.25v-3.17h3.17c.14,0,.25-.11.25-.25s-.11-.25-.25-.25h-3.17v-3.17c0-.14-.11-.25-.25-.25s-.25.11-.25.25v3.17h-3.17c-.14,0-.25.11-.25.25s.11.25.25.25Z"/>
</svg>