<?xml version="1.0" encoding="UTF-8"?>
<svg id="Capa_1" data-name="Capa 1" xmlns="http://www.w3.org/2000/svg" viewBox="0 0 41.29 36.78">
  <defs>
    <style>
      .cls-1 {
        fill: #0080ff;
      }
    </style>
  </defs>
  <path class="cls-1" d="m38.97,5.49C36.73,2.34,33.07.31,29.43.21c-3.33-.1-6.56,1.23-8.78,3.59C18.42,1.44,15.2.11,11.87.21c-3.65.1-7.3,2.13-9.54,5.28C.04,8.71-.61,13.03.59,17.04c1.25,4.17,4.57,7.49,7.58,10.28,3.65,3.37,7.74,6.25,11.68,9.02.24.17.51.25.79.24.01,0,.03,0,.04,0,.26,0,.52-.08.75-.24,3.95-2.78,8.03-5.65,11.68-9.02,3.02-2.78,6.34-6.1,7.58-10.28,1.2-4.01.55-8.33-1.74-11.55Zm.48,11.17c-1.15,3.85-4.2,6.9-7.22,9.69-3.59,3.31-7.63,6.16-11.55,8.92-.02,0-.04,0-.06,0,0,0,0,0,0,0-3.91-2.75-7.96-5.6-11.55-8.91-3.02-2.79-6.07-5.83-7.22-9.69-1.08-3.63-.5-7.52,1.55-10.41C5.4,3.43,8.66,1.62,11.9,1.52c.1,0,.19,0,.29,0,3.05,0,6.07,1.4,7.95,3.69.12.15.31.24.51.24s.38-.09.51-.24c1.94-2.36,5.09-3.78,8.23-3.69,3.24.09,6.5,1.91,8.51,4.73,2.05,2.89,2.63,6.78,1.55,10.41Z"/>
  <path class="cls-1" d="m28.01,16.24h-4.85c-.2,0-.37-.17-.37-.37v-4.85c0-.61-.49-1.1-1.1-1.1h-2.09c-.61,0-1.1.49-1.1,1.1v4.85c0,.2-.17.37-.37.37h-4.85c-.61,0-1.1.49-1.1,1.1v2.09c0,.61.49,1.1,1.1,1.1h4.85c.2,0,.37.17.37.37v4.85c0,.61.49,1.1,1.1,1.1h2.09c.61,0,1.1-.49,1.1-1.1v-4.85c0-.2.17-.37.37-.37h4.85c.61,0,1.1-.49,1.1-1.1v-2.09c0-.61-.49-1.1-1.1-1.1Z"/>
</svg>