<?xml version="1.0" encoding="UTF-8"?>
<svg id="Capa_1" data-name="Capa 1" xmlns="http://www.w3.org/2000/svg" viewBox="0 0 25 25">
  <defs>
    <style>
      .cls-1 {
        fill: none;
      }

      .cls-2 {
        fill: #fff;
      }
    </style>
  </defs>
  <path class="cls-1" d="m18.91,24.25c1.32,0,2.4-1.08,2.4-2.4s-1.08-2.4-2.4-2.4-2.4,1.08-2.4,2.4,1.08,2.4,2.4,2.4Z"/>
  <path class="cls-1" d="m11.97,15.66c.52,0,.93.41.97.92h7.97c.14,0,.26-.09.3-.22l3.02-8.94c.03-.1.02-.2-.04-.29-.06-.08-.15-.13-.26-.13h-2.55c-.13,3.46-2.98,6.24-6.48,6.24s-6.35-2.78-6.48-6.24h-3.05l2.04,8.67h4.55Z"/>
  <path class="cls-1" d="m16.06,21.37c.06-.37.19-.71.38-1.02h-4.62c.19.31.32.65.38,1.02h3.85Z"/>
  <path class="cls-1" d="m14.9,12.73c3.27,0,5.94-2.64,5.99-5.91-.01-.03-.04-.05-.04-.09s.02-.06.04-.09c-.05-3.26-2.71-5.91-5.99-5.91s-5.97,2.67-5.99,5.95c0,.01.02.02.02.04s-.01.02-.02.04c.02,3.29,2.7,5.95,5.99,5.95Zm-4.24-6.24h3.99v-3.99c0-.14.11-.25.25-.25s.25.11.25.25v3.99h3.99c.14,0,.25.11.25.25s-.11.25-.25.25h-3.99v3.99c0,.14-.11.25-.25.25s-.25-.11-.25-.25v-3.99h-3.99c-.14,0-.25-.11-.25-.25s.11-.25.25-.25Z"/>
  <path class="cls-1" d="m5.88,17.14h6.12c.26,0,.47-.21.47-.47,0-.29-.22-.52-.49-.52h-4.75c-.12,0-.22-.08-.24-.19L3.84,2.66c-.06-.24-.27-.41-.51-.41H1.24c-.27,0-.49.22-.49.49s.22.49.49.49h1.66c.12,0,.22.08.24.19l2.88,12.41c.02.07,0,.15-.05.21s-.12.09-.2.09h-.88c-.16,0-.28.13-.28.29v4.63c0,.16.13.29.28.29h1.61c.06-.37.19-.71.38-1.02h-1.01c-.14,0-.25-.11-.25-.25v-2.71c0-.14.11-.25.25-.25Z"/>
  <circle class="cls-1" cx="9.36" cy="21.85" r="2.4"/>
  <path class="cls-2" d="m12,17.64c.39,0,.72-.23.87-.57h8.05c.35,0,.66-.22.77-.56l3.02-8.94c.08-.25.04-.53-.11-.74-.15-.22-.4-.34-.66-.34h-2.55c-.13-3.46-2.98-6.24-6.48-6.24s-6.35,2.78-6.48,6.24h-3.17l-.93-3.94c-.11-.46-.52-.79-.99-.79H1.24c-.55,0-.99.45-.99.99s.44.99.99.99h1.46l2.77,11.91h-.57c-.43,0-.78.35-.78.79v4.63c0,.43.35.79.78.79h1.56c0,1.59,1.3,2.88,2.9,2.88s2.89-1.29,2.9-2.88h3.76c0,1.59,1.3,2.88,2.9,2.88s2.9-1.3,2.9-2.9-1.3-2.9-2.9-2.9c-.82,0-1.56.35-2.09.9h-5.38c-.53-.55-1.27-.9-2.09-.9s-1.56.35-2.09.9h-1.14v-2.21h5.87Zm-3.08-10.94c.02-3.29,2.7-5.95,5.99-5.95s5.94,2.64,5.99,5.91c-.01.03-.04.05-.04.09s.02.06.04.09c-.05,3.26-2.71,5.91-5.99,5.91s-5.97-2.67-5.99-5.95c0-.01.02-.02.02-.04s-.01-.02-.02-.04Zm-.49.29c.13,3.46,2.98,6.24,6.48,6.24s6.35-2.78,6.48-6.24h2.55c.1,0,.2.05.26.13.06.08.08.19.04.29l-3.02,8.94c-.04.13-.16.22-.3.22h-7.97c-.04-.51-.46-.92-.97-.92h-4.55l-2.04-8.67h3.05Zm10.49,12.46c1.32,0,2.4,1.08,2.4,2.4s-1.08,2.4-2.4,2.4-2.4-1.08-2.4-2.4,1.08-2.4,2.4-2.4Zm-2.47.9c-.19.31-.32.65-.38,1.02h-3.85c-.06-.37-.19-.71-.38-1.02h4.62Zm-7.09-.9c1.32,0,2.4,1.08,2.4,2.4s-1.08,2.4-2.4,2.4-2.4-1.08-2.4-2.4,1.08-2.4,2.4-2.4Zm-3.48.9h1.01c-.19.31-.32.65-.38,1.02h-1.61c-.16,0-.28-.13-.28-.29v-4.63c0-.16.13-.29.28-.29h.88c.08,0,.15-.04.2-.09s.06-.14.05-.21L3.14,3.44c-.03-.11-.13-.19-.24-.19h-1.66c-.27,0-.49-.22-.49-.49s.22-.49.49-.49h2.09c.24,0,.45.17.51.41l3.14,13.3c.03.11.13.19.24.19h4.75c.27,0,.49.22.49.52,0,.26-.21.47-.47.47h-6.12c-.14,0-.25.11-.25.25v2.71c0,.14.11.25.25.25Z"/>
  <path class="cls-2" d="m10.67,6.99h3.99v3.99c0,.14.11.25.25.25s.25-.11.25-.25v-3.99h3.99c.14,0,.25-.11.25-.25s-.11-.25-.25-.25h-3.99v-3.99c0-.14-.11-.25-.25-.25s-.25.11-.25.25v3.99h-3.99c-.14,0-.25.11-.25.25s.11.25.25.25Z"/>
</svg>